<svg xmlns="http://www.w3.org/2000/svg" width="40" height="40" viewBox="0 0 40 40">
  <path id="Twitter" d="M33.44,13.44a20,20,0,1,0,20,20A20,20,0,0,0,33.44,13.44ZM43.3,30.287c.009.2.014.411.014.618A13.6,13.6,0,0,1,22.389,42.36a9.655,9.655,0,0,0,7.078-1.979A4.786,4.786,0,0,1,25,37.061a4.8,4.8,0,0,0,2.159-.083,4.783,4.783,0,0,1-3.836-4.687V32.23a4.748,4.748,0,0,0,2.165.6,4.786,4.786,0,0,1-1.479-6.381,13.571,13.571,0,0,0,9.855,4.994,4.786,4.786,0,0,1,8.146-4.361,9.565,9.565,0,0,0,3.036-1.161,4.8,4.8,0,0,1-2.1,2.644,9.533,9.533,0,0,0,2.746-.752A9.691,9.691,0,0,1,43.3,30.287Z" transform="translate(-13.44 -13.44)" fill="#fff"/>
</svg>
